REM DIRINDEX 1\2\3,1\2\4,1\2\5,1\2\6
REM DIRNAME cjc157,folder01,folder02,folder03,folder04,folder05
TITLE ""
FILE "116 116.mp3" MP3
  TRACK 01 AUDIO
    TITLE "0:"
    INDEX 01 00:00:00
  TRACK 02 AUDIO
    TITLE "3:cjc157_4311"
    INDEX 01 00:00:11
  TRACK 03 AUDIO
    TITLE "0:"
    INDEX 01 00:01:26
  TRACK 04 AUDIO
    TITLE "4:cjc157_4312"
    INDEX 01 00:01:69
  TRACK 05 AUDIO
    TITLE "0:"
    INDEX 01 00:03:08
  TRACK 06 AUDIO
    TITLE "5:cjc157_4313"
    INDEX 01 00:03:63
  TRACK 07 AUDIO
    TITLE "0:"
    INDEX 01 00:05:38
  TRACK 08 AUDIO
    TITLE "5:cjc157_4314"
    INDEX 01 00:06:14
  TRACK 09 AUDIO
    TITLE "0:"
    INDEX 01 00:07:70
  TRACK 10 AUDIO
    TITLE "3:cjc157_4315"
    INDEX 01 00:08:40
  TRACK 11 AUDIO
    TITLE "0:"
    INDEX 01 00:09:55
  TRACK 12 AUDIO
    TITLE "4:cjc157_4316"
    INDEX 01 00:10:27
  TRACK 13 AUDIO
    TITLE "0:"
    INDEX 01 00:11:39
  TRACK 14 AUDIO
    TITLE "5:cjc157_4317"
    INDEX 01 00:12:09
  TRACK 15 AUDIO
    TITLE "0:"
    INDEX 01 00:14:15
  TRACK 16 AUDIO
    TITLE "5:cjc157_4318"
    INDEX 01 00:14:60
  TRACK 17 AUDIO
    TITLE "0:"
    INDEX 01 00:17:16
  TRACK 18 AUDIO
    TITLE "3:cjc157_4319"
    INDEX 01 00:17:57
  TRACK 19 AUDIO
    TITLE "0:"
    INDEX 01 00:19:20
  TRACK 20 AUDIO
    TITLE "4:cjc157_4320"
    INDEX 01 00:19:65
  TRACK 21 AUDIO
    TITLE "0:"
    INDEX 01 00:21:15
  TRACK 22 AUDIO
    TITLE "5:cjc157_4321"
    INDEX 01 00:21:70
  TRACK 23 AUDIO
    TITLE "0:"
    INDEX 01 00:24:14
  TRACK 24 AUDIO
    TITLE "3:cjc157_4322"
    INDEX 01 00:24:63
  TRACK 25 AUDIO
    TITLE "0:"
    INDEX 01 00:26:01
  TRACK 26 AUDIO
    TITLE "4:cjc157_4323"
    INDEX 01 00:26:44
  TRACK 27 AUDIO
    TITLE "0:"
    INDEX 01 00:27:53
  TRACK 28 AUDIO
    TITLE "5:cjc157_4324"
    INDEX 01 00:28:27
  TRACK 29 AUDIO
    TITLE "0:"
    INDEX 01 00:30:36
  TRACK 30 AUDIO
    TITLE "5:cjc157_4325"
    INDEX 01 00:31:16
  TRACK 31 AUDIO
    TITLE "0:"
    INDEX 01 00:34:59
  TRACK 32 AUDIO
    TITLE "3:cjc157_4326"
    INDEX 01 00:35:35
  TRACK 33 AUDIO
    TITLE "0:"
    INDEX 01 00:36:68
  TRACK 34 AUDIO
    TITLE "4:cjc157_4327"
    INDEX 01 00:37:38
  TRACK 35 AUDIO
    TITLE "0:"
    INDEX 01 00:38:59
  TRACK 36 AUDIO
    TITLE "5:cjc157_4328"
    INDEX 01 00:39:27
  TRACK 37 AUDIO
    TITLE "0:"
    INDEX 01 00:43:27
  TRACK 38 AUDIO
    TITLE "5:cjc157_4329"
    INDEX 01 00:44:03
  TRACK 39 AUDIO
    TITLE "0:"
    INDEX 01 00:46:15
  TRACK 40 AUDIO
    TITLE "3:cjc157_4330"
    INDEX 01 00:46:58
  TRACK 41 AUDIO
    TITLE "0:"
    INDEX 01 00:48:04
  TRACK 42 AUDIO
    TITLE "4:cjc157_4331"
    INDEX 01 00:48:44
  TRACK 43 AUDIO
    TITLE "0:"
    INDEX 01 00:49:49
  TRACK 44 AUDIO
    TITLE "5:cjc157_4332"
    INDEX 01 00:50:19
  TRACK 45 AUDIO
    TITLE "0:"
    INDEX 01 00:52:37
  TRACK 46 AUDIO
    TITLE "5:cjc157_4333"
    INDEX 01 00:53:06
  TRACK 47 AUDIO
    TITLE "0:"
    INDEX 01 00:54:62
  TRACK 48 AUDIO
    TITLE "3:cjc157_4334"
    INDEX 01 00:55:32
  TRACK 49 AUDIO
    TITLE "0:"
    INDEX 01 00:56:35
  TRACK 50 AUDIO
    TITLE "4:cjc157_4335"
    INDEX 01 00:57:07
  TRACK 51 AUDIO
    TITLE "0:"
    INDEX 01 00:58:15
  TRACK 52 AUDIO
    TITLE "5:cjc157_4336"
    INDEX 01 00:58:60
  TRACK 53 AUDIO
    TITLE "0:"
    INDEX 01 01:01:33
  TRACK 54 AUDIO
    TITLE "5:cjc157_4337"
    INDEX 01 01:02:05
  TRACK 55 AUDIO
    TITLE "0:"
    INDEX 01 01:04:07
  TRACK 56 AUDIO
    TITLE "3:cjc157_4338"
    INDEX 01 01:04:56
  TRACK 57 AUDIO
    TITLE "0:"
    INDEX 01 01:06:10
  TRACK 58 AUDIO
    TITLE "4:cjc157_4339"
    INDEX 01 01:06:51
  TRACK 59 AUDIO
    TITLE "0:"
    INDEX 01 01:07:70
  TRACK 60 AUDIO
    TITLE "5:cjc157_4340"
    INDEX 01 01:08:38
  TRACK 61 AUDIO
    TITLE "0:"
    INDEX 01 01:12:54
  TRACK 62 AUDIO
    TITLE "3:cjc157_4341"
    INDEX 01 01:13:26
  TRACK 63 AUDIO
    TITLE "0:"
    INDEX 01 01:14:59
  TRACK 64 AUDIO
    TITLE "4:cjc157_4342"
    INDEX 01 01:15:29
  TRACK 65 AUDIO
    TITLE "0:"
    INDEX 01 01:16:36
  TRACK 66 AUDIO
    TITLE "5:cjc157_4343"
    INDEX 01 01:17:08
  TRACK 67 AUDIO
    TITLE "0:"
    INDEX 01 01:19:32
  TRACK 68 AUDIO
    TITLE "5:cjc157_4344"
    INDEX 01 01:20:02
  TRACK 69 AUDIO
    TITLE "0:"
    INDEX 01 01:22:03
  TRACK 70 AUDIO
    TITLE "3:cjc157_4345"
    INDEX 01 01:22:52
  TRACK 71 AUDIO
    TITLE "0:"
    INDEX 01 01:23:62
  TRACK 72 AUDIO
    TITLE "4:cjc157_4346"
    INDEX 01 01:24:30
  TRACK 73 AUDIO
    TITLE "0:"
    INDEX 01 01:25:43
  TRACK 74 AUDIO
    TITLE "5:cjc157_4347"
    INDEX 01 01:26:25
  TRACK 75 AUDIO
    TITLE "0:"
    INDEX 01 01:28:53
  TRACK 76 AUDIO
    TITLE "5:cjc157_4348"
    INDEX 01 01:29:25
  TRACK 77 AUDIO
    TITLE "0:"
    INDEX 01 01:32:08
